# xmcd
# 
# Track frame offsets:
#     150
#     38223
#     74333
#     102350
#     125973
#     168365
#     196438
# 
# Disc length: 2943
# 
# Revision: 11
# Processed by: cddbd v1.5.2PL0 Copyright (c) Steve Scherf et al.
# Submitted via: BonkEnc v1.0.8
# 
DISCID=660b7d07
DTITLE=Satyricon - The Shadowthrone
DYEAR=1994
DGENRE=Black Metal
TTITLE0=Hvite Krists Død
TTITLE1=In the Mist by the Hills
TTITLE2=Woods to Eternity
TTITLE3=Vikingland
TTITLE4=Dominions of Satyricon
TTITLE5=The King of the Shadowthrone
TTITLE6=I En Svart Kiste
EXTD=1994 Moonfog
EXTT0=
EXTT1=
EXTT2=
EXTT3=
EXTT4=
EXTT5=
EXTT6=
PLAYORDER=
